<svg width="16" height="19" viewBox="0 0 16 19" fill="none" xmlns="http://www.w3.org/2000/svg">
<path d="M14 9.10419C14.0023 10.1491 13.7967 11.1798 13.4 12.1125C12.9296 13.2302 12.2065 14.1702 11.3116 14.8274C10.4168 15.4845 9.3855 15.8329 8.33333 15.8334C7.45342 15.8361 6.58541 15.592 5.8 15.1209L2 16.625L3.26667 12.1125C2.86995 11.1798 2.66437 10.1491 2.66667 9.10419C2.66707 7.85475 2.96041 6.63011 3.51381 5.56746C4.06722 4.5048 4.85884 3.6461 5.8 3.08752C6.58541 2.61643 7.45342 2.3723 8.33333 2.37502H8.66667C10.0562 2.46606 11.3687 3.16254 12.3528 4.33112C13.3368 5.4997 13.9233 7.05825 14 8.70836V9.10419Z" stroke="white" stroke-linecap="round" stroke-linejoin="round"/>
</svg>
