<svg width="25" height="26" viewBox="0 0 25 26" fill="none" xmlns="http://www.w3.org/2000/svg">
<g clip-path="url(#clip0_36_144)">
<path d="M22.3332 12.0101L12.7603 21.583C11.5876 22.7558 9.99696 23.4146 8.33844 23.4146C6.67991 23.4146 5.08932 22.7558 3.91656 21.583C2.74381 20.4103 2.08496 18.8197 2.08496 17.1612C2.08496 15.5026 2.74381 13.9121 3.91656 12.7393L13.4895 3.16638C14.2713 2.38454 15.3317 1.94531 16.4374 1.94531C17.5431 1.94531 18.6035 2.38454 19.3853 3.16638C20.1671 3.94822 20.6064 5.00861 20.6064 6.1143C20.6064 7.21998 20.1671 8.28038 19.3853 9.06221L9.80198 18.6351C9.41106 19.026 8.88086 19.2457 8.32802 19.2457C7.77518 19.2457 7.24498 19.026 6.85406 18.6351C6.46314 18.2442 6.24353 17.714 6.24353 17.1612C6.24353 16.6083 6.46314 16.0781 6.85406 15.6872L15.6978 6.85388" stroke="white" stroke-opacity="0.76" stroke-width="4" stroke-linecap="round" stroke-linejoin="round"/>
</g>
<defs>
<clipPath id="clip0_36_144">
<rect width="25" height="25" fill="white" transform="translate(0 0.5)"/>
</clipPath>
</defs>
</svg>
