<svg width="18" height="18" viewBox="0 0 18 18" fill="none" xmlns="http://www.w3.org/2000/svg">
<path fill-rule="evenodd" clip-rule="evenodd" d="M3.15698 3.73926H15.1889C15.5798 3.73926 15.8967 4.05613 15.8967 4.44702V14.3557C15.8967 14.7466 15.5798 15.0635 15.1889 15.0635H3.15698C2.76609 15.0635 2.44922 14.7466 2.44922 14.3557V4.44702C2.44922 4.05613 2.76609 3.73926 3.15698 3.73926Z" stroke="#344054" stroke-width="2" stroke-linecap="round" stroke-linejoin="round"/>
<path d="M5.8111 7.27844C6.10426 7.27844 6.34192 7.04078 6.34192 6.74762C6.34192 6.45445 6.10426 6.2168 5.8111 6.2168C5.51793 6.2168 5.28027 6.45445 5.28027 6.74762C5.28027 7.04078 5.51793 7.27844 5.8111 7.27844Z" stroke="#344054" stroke-width="2" stroke-linecap="round" stroke-linejoin="round"/>
<path d="M5.98803 9.40149L7.75744 10.817L9.88073 8.33984L15.8967 12.9403V14.3558C15.8967 14.7467 15.5798 15.0636 15.1889 15.0636H3.15698C2.76609 15.0636 2.44922 14.7467 2.44922 14.3558V12.9403L5.98803 9.40149Z" fill="white" stroke="#344054" stroke-width="2" stroke-linejoin="round"/>
</svg>
