<svg width="57" height="53" viewBox="0 0 57 53" fill="none" xmlns="http://www.w3.org/2000/svg">
<rect width="56.2192" height="52.8982" rx="26.4491" fill="white" fill-opacity="0.84"/>
<path d="M39.9097 25.0001L28.4222 34.1901C27.0149 35.316 25.1062 35.9485 23.116 35.9485C21.1258 35.9485 19.217 35.316 17.8097 34.1901C16.4024 33.0643 15.6118 31.5373 15.6118 29.9451C15.6118 28.3529 16.4024 26.826 17.8097 25.7001L29.2972 16.5101C30.2354 15.7596 31.5079 15.3379 32.8347 15.3379C34.1616 15.3379 35.434 15.7596 36.3722 16.5101C37.3104 17.2607 37.8375 18.2787 37.8375 19.3401C37.8375 20.4016 37.3104 21.4196 36.3722 22.1701L24.8722 31.3601C24.4031 31.7354 23.7669 31.9462 23.1035 31.9462C22.4401 31.9462 21.8038 31.7354 21.3347 31.3601C20.8656 30.9848 20.6021 30.4758 20.6021 29.9451C20.6021 29.4144 20.8656 28.9054 21.3347 28.5301L31.9472 20.0501" stroke="#1E1E1E" stroke-width="2" stroke-linecap="round" stroke-linejoin="round"/>
</svg>
