<svg width="16" height="19" viewBox="0 0 16 19" fill="none" xmlns="http://www.w3.org/2000/svg">
<g clip-path="url(#clip0_111_222)">
<path d="M8.00008 11.8753C9.10465 11.8753 10.0001 10.812 10.0001 9.50033C10.0001 8.18865 9.10465 7.12533 8.00008 7.12533C6.89551 7.12533 6.00008 8.18865 6.00008 9.50033C6.00008 10.812 6.89551 11.8753 8.00008 11.8753Z" stroke="white" stroke-linecap="round" stroke-linejoin="round"/>
<path d="M12.9334 11.8753C12.8447 12.1141 12.8182 12.379 12.8574 12.6358C12.8966 12.8926 12.9997 13.1296 13.1534 13.3162L13.1934 13.3637C13.3174 13.5107 13.4157 13.6853 13.4828 13.8775C13.5499 14.0698 13.5845 14.2758 13.5845 14.4839C13.5845 14.6919 13.5499 14.898 13.4828 15.0902C13.4157 15.2824 13.3174 15.457 13.1934 15.6041C13.0696 15.7513 12.9225 15.8681 12.7607 15.9478C12.5988 16.0274 12.4253 16.0684 12.2501 16.0684C12.0749 16.0684 11.9014 16.0274 11.7395 15.9478C11.5776 15.8681 11.4306 15.7513 11.3067 15.6041L11.2667 15.5566C11.1096 15.3741 10.9101 15.2516 10.6938 15.2051C10.4775 15.1585 10.2545 15.1899 10.0534 15.2953C9.85623 15.3957 9.68807 15.5623 9.56962 15.7747C9.45117 15.9871 9.3876 16.236 9.38675 16.4907V16.6253C9.38675 17.0453 9.24627 17.448 8.99622 17.7449C8.74617 18.0418 8.40704 18.2087 8.05341 18.2087C7.69979 18.2087 7.36065 18.0418 7.11061 17.7449C6.86056 17.448 6.72008 17.0453 6.72008 16.6253V16.5541C6.71492 16.292 6.64349 16.0379 6.51509 15.8247C6.38668 15.6115 6.20724 15.4491 6.00008 15.3587C5.799 15.2533 5.57595 15.2218 5.35969 15.2684C5.14343 15.315 4.94387 15.4374 4.78675 15.6199L4.74675 15.6674C4.62292 15.8146 4.47587 15.9314 4.314 16.0111C4.15214 16.0908 3.97864 16.1318 3.80341 16.1318C3.62819 16.1318 3.45469 16.0908 3.29283 16.0111C3.13096 15.9314 2.98391 15.8146 2.86008 15.6674C2.73611 15.5204 2.63777 15.3457 2.57067 15.1535C2.50357 14.9613 2.46903 14.7553 2.46903 14.5472C2.46903 14.3391 2.50357 14.1331 2.57067 13.9409C2.63777 13.7487 2.73611 13.574 2.86008 13.427L2.90008 13.3795C3.05377 13.1929 3.15687 12.9559 3.19608 12.6991C3.2353 12.4423 3.20882 12.1774 3.12008 11.9387C3.03557 11.7045 2.89525 11.5048 2.71639 11.3642C2.53753 11.2235 2.32794 11.148 2.11341 11.147H2.00008C1.64646 11.147 1.30732 10.9802 1.05727 10.6832C0.807224 10.3863 0.666748 9.98359 0.666748 9.56366C0.666748 9.14373 0.807224 8.74101 1.05727 8.44407C1.30732 8.14714 1.64646 7.98033 2.00008 7.98033H2.06008C2.28074 7.9742 2.49475 7.88938 2.67428 7.7369C2.85381 7.58442 2.99056 7.37132 3.06675 7.12533C3.15549 6.88655 3.18196 6.62167 3.14275 6.36486C3.10354 6.10805 3.00044 5.87107 2.84675 5.68449L2.80675 5.63699C2.68278 5.48994 2.58443 5.31532 2.51733 5.12311C2.45024 4.93089 2.4157 4.72486 2.4157 4.51678C2.4157 4.30871 2.45024 4.10268 2.51733 3.91046C2.58443 3.71825 2.68278 3.54362 2.80675 3.39658C2.93058 3.24936 3.07763 3.13258 3.23949 3.0529C3.40136 2.97322 3.57486 2.93221 3.75008 2.93221C3.9253 2.93221 4.0988 2.97322 4.26067 3.0529C4.42253 3.13258 4.56958 3.24936 4.69341 3.39658L4.73341 3.44408C4.89053 3.62658 5.09009 3.74901 5.30636 3.79558C5.52262 3.84214 5.74567 3.81071 5.94675 3.70533H6.00008C6.19726 3.60497 6.36543 3.43834 6.48388 3.22594C6.60233 3.01355 6.66589 2.76466 6.66675 2.50991V2.37533C6.66675 1.9554 6.80722 1.55267 7.05727 1.25574C7.30732 0.958807 7.64646 0.791992 8.00008 0.791992C8.3537 0.791992 8.69284 0.958807 8.94289 1.25574C9.19294 1.55267 9.33341 1.9554 9.33341 2.37533V2.44658C9.33427 2.70132 9.39784 2.95021 9.51629 3.16261C9.63474 3.37501 9.8029 3.54164 10.0001 3.64199C10.2012 3.74738 10.4242 3.77881 10.6405 3.73225C10.8567 3.68568 11.0563 3.56325 11.2134 3.38074L11.2534 3.33324C11.3772 3.18603 11.5243 3.06924 11.6862 2.98956C11.848 2.90988 12.0215 2.86887 12.1967 2.86887C12.372 2.86887 12.5455 2.90988 12.7073 2.98956C12.8692 3.06924 13.0162 3.18603 13.1401 3.33324C13.264 3.48029 13.3624 3.65492 13.4295 3.84713C13.4966 4.03934 13.5311 4.24538 13.5311 4.45345C13.5311 4.66153 13.4966 4.86756 13.4295 5.05977C13.3624 5.25199 13.264 5.42661 13.1401 5.57366L13.1001 5.62116C12.9464 5.80774 12.8433 6.04471 12.8041 6.30153C12.7649 6.55834 12.7913 6.82321 12.8801 7.06199V7.12533C12.9646 7.35948 13.1049 7.55917 13.2838 7.69983C13.4626 7.84049 13.6722 7.91598 13.8867 7.91699H14.0001C14.3537 7.91699 14.6928 8.08381 14.9429 8.38074C15.1929 8.67767 15.3334 9.0804 15.3334 9.50033C15.3334 9.92025 15.1929 10.323 14.9429 10.6199C14.6928 10.9168 14.3537 11.0837 14.0001 11.0837H13.9401C13.7256 11.0847 13.516 11.1602 13.3371 11.3008C13.1582 11.4415 13.0179 11.6412 12.9334 11.8753Z" stroke="white" stroke-linecap="round" stroke-linejoin="round"/>
</g>
<defs>
<clipPath id="clip0_111_222">
<rect width="16" height="19" fill="white"/>
</clipPath>
</defs>
</svg>
