<svg width="131" height="89" viewBox="0 0 131 89" fill="none" xmlns="http://www.w3.org/2000/svg">
<path d="M88.4864 0.923291C87.803 0.307763 86.9394 0 85.8965 0C84.6376 0 83.5581 0.538582 82.6588 1.61576L30.053 71.036L9.60402 50.3773C9.2443 49.9541 8.81267 49.6271 8.30905 49.3963C7.80551 49.1655 7.28395 49.0501 6.74437 49.0501C5.62934 49.0501 4.65813 49.4925 3.83082 50.3773L1.18701 53.2049C0.395667 54.0128 0 55.0323 0 56.2633C0 57.4944 0.395667 58.5331 1.18701 59.3795L26.6538 86.6166C27.9128 87.8475 29.3335 88.463 30.9162 88.463C31.8155 88.463 32.6788 88.2521 33.5061 87.8285C34.3334 87.4057 35.0168 86.8094 35.5564 86.0394L92.0471 9.52145C92.6591 8.63664 92.9642 7.73264 92.9642 6.80927C92.9642 5.38591 92.4253 4.251 91.3458 3.40465L88.4864 0.923291ZM67.6597 70.6898C66.041 69.6126 64.4943 68.5355 63.0196 67.4583C62.3361 66.7274 61.4369 66.3618 60.3217 66.3618C59.0628 66.3618 58.0377 66.8427 57.2464 67.8046L54.7644 70.8052C54.045 71.69 53.6853 72.671 53.6853 73.7482C53.6853 74.9408 54.081 75.9795 54.8723 76.8644L64.0447 86.6166C65.1957 87.8475 66.5986 88.463 68.2532 88.463C69.1524 88.463 70.0157 88.2521 70.843 87.8285C71.6703 87.4057 72.3718 86.8094 72.9473 86.0394L129.223 9.75227C129.834 8.98291 130.14 8.07882 130.14 7.04009C130.14 5.73209 129.636 4.59727 128.628 3.63547L125.608 1.15412C124.924 0.538582 124.078 0.230818 123.071 0.230818C121.849 0.230818 120.787 0.769409 119.888 1.84659L67.6597 70.6898Z" fill="#00FF37"/>
</svg>
